<?xml version="1.0" encoding="UTF-8"?>
<svg width="57px" height="43px" viewBox="0 0 57 43" version="1.1" xmlns="http://www.w3.org/2000/svg" xmlns:xlink="http://www.w3.org/1999/xlink">
    <title>header-logo</title>
    <g id="Website" stroke="none" stroke-width="1" fill="none" fill-rule="evenodd">
        <g id="XS-01---Home/Work" transform="translate(-8.000000, -26.000000)" fill="#303030" fill-rule="nonzero">
            <path d="M57.769476,27.5412372 C64.1373289,30.4821917 62.9615158,36.9361717 60.3075577,40.5185749 C57.6917686,43.6400737 56.383874,46.3201878 56.383874,48.558917 C56.383874,51.9170108 67.5570306,56.0957805 64.1373289,63.315484 C60.2948615,71.4277341 47.2189455,68.9902365 47.2189455,62.2000978 C47.2189455,55.409959 51.3553149,47.5892133 51.3553149,40.5185749 C48.1870985,41.798492 44.2576131,46.4784067 44.2576131,59.2610566 C44.2576131,62.6493018 41.527891,64.9783043 36.6778172,64.9783043 C31.8277435,64.9783043 28.8411523,62.6493018 28.8411523,59.2610566 C28.8411523,46.4784067 24.7735483,41.9617608 22.0003196,40.5185749 C22.0003196,47.5892133 26.1366889,53.415492 26.1366889,62.2000978 C26.1366889,69.2710728 13.2130099,71.3867648 9.21830556,63.315484 C5.81532829,56.4397849 16.9717605,52.1006774 16.9717605,48.558917 C16.9717605,45.0171566 15.7020349,44.1009782 13.0480768,40.5185749 C10.3941187,36.9361717 9.21830556,30.4821917 15.5861584,27.5412372 C19.4672481,25.7487793 24.675172,27.5412372 26.1366889,31.7904045 C27.7073276,36.3568286 34.9788525,50.4834593 36.6780878,50.4834593 C38.3773231,50.4834593 45.7517093,35.8166468 47.2189455,31.7904045 C49.4206241,25.7487793 53.8883864,25.7487793 57.769476,27.5412372 Z" id="header-logo"></path>
        </g>
    </g>
</svg>